PathFileType	4	(X/Y/Z)	C:/Users/opensim2020/Desktop/walking_exp_matlab/subject02_walking06_static.trc	
DataRate	CameraRate	NumFrames	NumMarkers	Units	OrigDataRate	OrigDataStartFrame	OrigNumFrames	
100.00	100.00	7	41	mm	100.00	144	287	
Frame#	Time	LFHD			RFHD			LBHD			RBHD			C7			T10			CLAV			STRN			RBAK			LSHO			LUPA			LELB			LFRM			LWRA			LWRB			LFIN			RSHO			RUPA			RELB			RFRM			RWRA			RWRB			RFIN			LASI			RASI			LPSI			RPSI			LTHI			LKNE			LTIB			LANK			LHEE			LTOE			RTHI			RKNE			RTIB			RANK			RHEE			RTOE			*39			*40			
		X1	Y1	Z1	X2	Y2	Z2	X3	Y3	Z3	X4	Y4	Z4	X5	Y5	Z5	X6	Y6	Z6	X7	Y7	Z7	X8	Y8	Z8	X9	Y9	Z9	X10	Y10	Z10	X11	Y11	Z11	X12	Y12	Z12	X13	Y13	Z13	X14	Y14	Z14	X15	Y15	Z15	X16	Y16	Z16	X17	Y17	Z17	X18	Y18	Z18	X19	Y19	Z19	X20	Y20	Z20	X21	Y21	Z21	X22	Y22	Z22	X23	Y23	Z23	X24	Y24	Z24	X25	Y25	Z25	X26	Y26	Z26	X27	Y27	Z27	X28	Y28	Z28	X29	Y29	Z29	X30	Y30	Z30	X31	Y31	Z31	X32	Y32	Z32	X33	Y33	Z33	X34	Y34	Z34	X35	Y35	Z35	X36	Y36	Z36	X37	Y37	Z37	X38	Y38	Z38	X39	Y39	Z39	X40	Y40	Z40	X41	Y41	Z41	

144	1.430	-18.46594	-692.54651	1751.72864	-5.49822	-550.81421	1732.27979	103.69693	-715.05426	1665.64099	129.70920	-575.19238	1643.48303	152.46904	-641.59418	1522.22864	191.95525	-639.10077	1247.89929	1.50919	-650.02319	1472.57617	-63.64432	-639.26471	1305.87036	191.02530	-568.86182	1350.16638	58.50466	-816.91730	1515.16687	53.00500	-927.23358	1333.44104	57.65765	-957.81329	1192.78796	34.87331	-965.67365	1058.49536	-18.73633	-915.43811	939.45471	16.91015	-959.77972	936.94904	-9.61852	-956.84882	876.43567	57.28026	-459.22189	1509.38464	57.85921	-346.43909	1336.32971	33.81238	-317.81256	1189.65454	-5.99610	-311.29483	1072.13599	-49.83907	-347.97925	948.58630	-19.20208	-301.49377	942.00348	-59.94374	-313.47116	883.77155	-40.96471	-758.58148	993.64069	-31.37881	-507.99167	985.59601	171.32883	-690.14429	1028.31763	180.11150	-575.22498	1029.74646	34.57747	-838.99719	686.25116	69.01547	-827.87964	484.23392	125.06235	-851.96722	299.70987	116.16747	-847.22809	72.54504	151.61191	-801.24384	40.91731	-42.87277	-860.33752	31.00535	57.86714	-415.43542	682.71667	58.41087	-432.15787	471.42126	110.63220	-404.16956	292.09369	133.62239	-415.26733	96.98915	166.45151	-465.26822	37.56921	-15.48037	-379.75565	37.90873	97.97507	-614.24957	1807.83118	-3360.30249	2845.22876	1033.80774 
145	1.440	-18.43912	-692.43677	1751.73315	-5.41420	-550.68219	1732.27087	103.69881	-714.95532	1665.62085	129.74956	-575.06158	1643.65845	152.46364	-641.47992	1522.23181	191.94913	-639.12878	1247.87329	1.47253	-649.91382	1472.62073	-63.67245	-639.18518	1305.87891	190.97079	-569.60419	1350.24072	58.46032	-816.79205	1515.22522	52.97700	-927.18500	1333.52356	57.57480	-957.79761	1192.87708	34.68935	-965.86597	1058.68884	-18.95429	-915.56885	939.58392	16.80218	-959.84808	937.10858	-9.66695	-956.80737	876.53650	57.25825	-459.13614	1509.32239	57.48079	-346.73792	1336.21912	33.79650	-317.77118	1189.56213	-6.13942	-311.26743	1072.05469	-50.01809	-348.03775	948.60309	-19.17586	-301.24222	942.08282	-60.09340	-313.62711	883.73889	-41.01823	-758.55499	993.65826	-31.34796	-508.00357	985.57001	171.24809	-690.21930	1028.31360	180.08234	-575.30402	1029.74451	34.49179	-839.00726	686.25177	68.96816	-827.89160	484.21954	125.09274	-852.03003	299.73810	116.13860	-847.22034	72.53343	151.59424	-801.23779	40.95568	-42.84776	-860.32281	30.98794	57.95383	-415.50848	682.72113	58.49140	-432.16531	471.42007	110.69833	-404.20599	292.08878	133.63803	-415.29205	96.96999	166.47679	-465.25909	37.57580	-15.47538	-379.74136	37.91944	98.03532	-614.09259	1807.78699	-3357.69336	2845.81030	1034.02283 
146	1.450	-18.43476	-692.29053	1751.73645	-5.39806	-550.54669	1732.29333	103.71349	-714.84332	1665.60083	129.18617	-575.02319	1643.73047	152.44702	-641.32727	1522.23547	191.91591	-639.16895	1247.87512	1.45760	-649.80273	1472.66382	-63.70939	-639.12378	1305.88904	190.52406	-569.77600	1350.01123	58.42690	-816.68042	1515.31946	52.92081	-927.10553	1333.62439	57.47889	-957.77344	1192.99182	34.58928	-965.75061	1058.74475	-19.13674	-915.66248	939.74219	16.53264	-959.97583	937.18445	-9.99246	-957.06091	876.67053	57.21770	-458.98978	1509.35559	57.24295	-346.80405	1336.05542	33.76527	-317.72244	1189.49402	-6.16936	-311.29889	1071.97522	-50.11057	-348.13641	948.58893	-19.32620	-301.31937	942.04242	-60.20419	-313.72800	883.66956	-41.08654	-758.54962	993.66669	-31.33619	-508.03662	985.57312	171.18571	-690.28406	1028.33142	180.06879	-575.35815	1029.75439	34.37779	-839.02118	686.23340	68.92577	-827.92847	484.22601	125.00288	-851.98639	299.68234	116.15262	-847.21252	72.52049	151.60031	-801.24762	40.95361	-42.85728	-860.32648	30.99747	57.98343	-415.55457	682.74615	58.51663	-432.09918	471.44586	110.72975	-404.23700	292.08832	133.63852	-415.27844	96.98512	166.64906	-465.23203	37.65391	-15.46319	-379.74857	37.93340	98.10355	-614.03528	1807.79138	-3357.39673	2845.79224	1034.04077 
147	1.460	-18.34385	-692.05054	1751.65137	-5.38345	-550.41821	1732.30908	103.73193	-714.67847	1665.57910	129.17644	-574.91223	1643.72827	152.43619	-641.22791	1522.23230	191.90169	-639.18768	1247.86340	1.47078	-649.69952	1472.68469	-63.76547	-639.06561	1305.92065	190.91183	-569.55676	1350.15991	58.36757	-816.55792	1515.42456	52.85882	-927.03680	1333.78638	57.37161	-957.76453	1193.12329	34.42868	-966.03381	1058.96460	-19.15221	-915.85187	939.90887	16.26289	-959.82739	937.23767	-10.16168	-957.13080	876.82434	57.18806	-458.86188	1509.35681	57.46247	-346.60275	1336.08398	33.71413	-317.71317	1189.43018	-6.22444	-311.30011	1071.94055	-50.23488	-348.22992	948.52301	-19.43236	-301.40784	941.94574	-60.37870	-313.79587	883.64026	-41.13939	-758.56488	993.66644	-31.25630	-508.05795	985.58356	171.11432	-690.38818	1028.36108	180.10333	-575.46582	1029.77600	34.30386	-839.05664	686.24817	68.87711	-827.96216	484.20773	125.03616	-852.10583	299.75830	116.14179	-847.26190	72.54377	151.60373	-801.24567	40.92940	-42.86149	-860.32013	30.98951	57.69435	-415.51364	682.83911	58.60922	-432.01425	471.44647	110.75175	-404.23996	292.10587	133.65196	-415.29480	96.99058	166.50012	-465.26883	37.58239	-15.45146	-379.74112	37.93067	98.12092	-613.87793	1807.77075	-3360.27002	2845.18091	1033.72168 
148	1.470	-18.28638	-691.90033	1751.65723	-5.40056	-550.30890	1732.33008	103.73642	-714.55444	1665.56055	129.16759	-574.78394	1643.68079	152.44312	-641.12561	1522.23474	191.90549	-639.19501	1247.87402	1.42733	-649.59235	1472.74707	-63.80498	-639.00189	1305.94531	190.97063	-568.75665	1350.06934	58.31639	-816.46594	1515.54431	52.68920	-926.96460	1333.84424	57.26036	-957.71521	1193.27698	34.35600	-965.76880	1059.00208	-19.44993	-915.81805	940.07599	16.22706	-959.99823	937.46741	-10.27157	-957.12494	876.97662	57.11999	-458.79001	1509.34485	57.51004	-346.48203	1335.93884	33.68009	-317.71069	1189.33862	-6.34135	-311.27686	1071.86890	-50.35068	-348.27582	948.47638	-19.71899	-301.86597	941.73492	-60.45049	-313.94437	883.58337	-41.19198	-758.56213	993.69635	-31.22378	-508.10507	985.60712	171.07977	-690.49762	1028.37451	180.13083	-575.58185	1029.79749	34.25409	-839.03003	686.19562	68.83653	-828.01117	484.21838	124.98957	-852.08887	299.71207	116.14358	-847.26794	72.52420	151.60321	-801.26630	40.94702	-42.86174	-860.32355	30.96994	57.80757	-416.05975	682.67206	58.50146	-432.19937	471.47586	110.76158	-404.26337	292.10608	133.65173	-415.30896	97.00515	166.46941	-465.27023	37.49913	-15.46023	-379.74994	37.90959	98.13196	-613.74774	1807.75098	-3360.28564	2845.02930	1033.89258 
149	1.480	-18.27426	-691.86975	1751.73682	-5.41620	-550.22003	1732.33630	103.81818	-714.43872	1665.60437	129.15114	-574.64728	1643.67017	152.41254	-641.04260	1522.23755	191.88364	-639.20551	1247.88354	1.41236	-649.47467	1472.82434	-63.87980	-638.95654	1305.99316	190.84608	-568.94318	1349.81909	58.22965	-816.34760	1515.68115	52.60263	-926.83441	1334.08069	57.13756	-957.64966	1193.43689	34.20818	-965.83844	1059.21179	-19.47250	-915.84827	940.22565	16.10528	-959.97034	937.63062	-10.41244	-957.09576	877.14117	57.09147	-458.69058	1509.31287	57.36581	-346.42804	1335.85876	33.58612	-317.71622	1189.30261	-6.40030	-311.29889	1071.80933	-50.40053	-348.31891	948.44714	-19.67940	-301.57669	941.82422	-60.56721	-314.00391	883.52222	-41.21385	-758.56085	993.71814	-31.12261	-508.10861	985.67255	171.04366	-690.60529	1028.39050	180.14719	-575.69965	1029.78687	34.18743	-839.10303	686.19556	68.74344	-828.11139	484.19193	124.90602	-852.04388	299.67764	116.12812	-847.45325	72.61637	151.59337	-801.26276	40.95729	-42.85711	-860.32587	30.99359	57.77459	-415.56842	682.83582	58.65192	-432.03381	471.39999	110.77149	-404.31055	292.09839	133.66528	-415.29080	97.00001	166.49741	-465.25958	37.46671	-15.45612	-379.73325	37.93500	98.17287	-613.60291	1807.75549	-3360.31958	2845.07837	1033.95996 
150	1.490	-18.19726	-691.70612	1751.69214	-5.42829	-550.11847	1732.33313	103.85021	-714.31879	1665.62744	129.18845	-574.48279	1643.68250	152.40607	-640.95776	1522.27222	191.89513	-639.23456	1247.91980	1.36724	-649.37885	1472.88550	-63.92694	-638.91949	1306.02039	190.58801	-569.68488	1349.97803	58.15758	-816.21979	1515.74927	52.42138	-926.82489	1334.30017	57.00459	-957.62305	1193.60681	34.04539	-966.00653	1059.47815	-19.68407	-915.71796	940.38434	16.02526	-959.88379	937.76898	-10.44424	-957.11310	877.47626	57.04644	-458.58234	1509.31812	57.33862	-346.44156	1335.79895	33.48162	-317.72849	1189.23254	-6.59531	-311.23773	1071.77124	-50.48694	-348.36987	948.35895	-19.79400	-301.60947	941.77246	-60.66994	-314.06909	883.44678	-41.24351	-758.59900	993.73383	-31.07358	-508.13202	985.69855	170.99541	-690.69189	1028.41992	180.20462	-575.79510	1029.77930	34.12847	-839.07361	686.16382	68.77617	-828.07196	484.22018	124.78212	-852.03430	299.68637	116.14551	-847.24609	72.50639	151.56903	-801.24786	40.92686	-42.85142	-860.31396	30.98517	58.07745	-415.60379	682.79688	58.65779	-432.07089	471.38687	110.76948	-404.28452	292.11444	133.66943	-415.32324	97.00551	166.44565	-465.27969	37.51541	-15.45844	-379.74060	37.92683	98.18761	-613.39990	1807.76599	-3360.26074	2845.06714	1033.78723 
